<?xml version="1.0" encoding="UTF-8" standalone="no" ?>
<!DOCTYPE svg PUBLIC "-//W3C//DTD SVG 1.1//EN" "http://www.w3.org/Graphics/SVG/1.1/DTD/svg11.dtd">
<svg xmlns="http://www.w3.org/2000/svg" xmlns:xlink="http://www.w3.org/1999/xlink" version="1.1" width="1080" height="1080" viewBox="0 0 1080 1080" xml:space="preserve">
<desc>Created with Fabric.js 5.2.4</desc>
<defs>
</defs>
<rect x="0" y="0" width="100%" height="100%" fill="transparent"></rect>
<g transform="matrix(1 0 0 1 540 540)" id="5b26aae2-2ab0-4359-8e96-4c06b9e6a7a2"  >
</g>
<g transform="matrix(1 0 0 1 540 540)" id="5cc50d7b-b1de-430e-af68-d668f38eefee"  >
<rect style="stroke: none; stroke-width: 1; stroke-dasharray: none; stroke-linecap: butt; stroke-dashoffset: 0; stroke-linejoin: miter; stroke-miterlimit: 4; fill: rgb(255,255,255); fill-rule: nonzero; opacity: 1; visibility: hidden;" vector-effect="non-scaling-stroke"  x="-540" y="-540" rx="0" ry="0" width="1080" height="1080" />
</g>
<g transform="matrix(1 0 0 1 521.56 469.33)"  >
<g style="" vector-effect="non-scaling-stroke"   >
		<g transform="matrix(1 0 0 1 0 -60.52)"  >
<path style="stroke: none; stroke-width: 1; stroke-dasharray: none; stroke-linecap: butt; stroke-dashoffset: 0; stroke-linejoin: miter; stroke-miterlimit: 4; fill: rgb(255,255,255); fill-rule: nonzero; opacity: 1;" vector-effect="non-scaling-stroke"  transform=" translate(-212.63, -111.03)" d="M 159.742126 167.587234 C 143.963562 189.616119 112.472084 186.170151 101.203888 163.621613 C 99.017349 159.246201 98.117676 154.528595 97.417503 149.401993 C 87.599472 150.210739 77.886002 151.013229 68.172089 151.810181 C 62.04121 152.313156 55.907921 152.787582 49.779007 153.313232 C 45.578369 153.673508 43.783642 151.885529 43.618073 147.582794 C 43.189617 136.448364 42.613689 125.312592 41.738056 114.205612 C 41.351971 109.308334 43.053391 106.95224 47.826767 105.723 C 66.66433 100.871956 85.399597 95.623657 104.237373 90.773491 C 108.280289 89.732559 110.901802 87.682655 113.019859 84.186798 C 120.269318 72.221497 127.83033 60.444771 135.06218 48.469109 C 137.100143 45.094315 139.527847 43.68177 143.515121 43.610626 C 173.648087 43.072948 203.797043 42.78685 233.900681 41.487881 C 252.37001 40.690929 270.880585 41.378723 289.305176 39.694019 C 294.622406 39.207825 297.534943 41.179672 299.335266 46.32481 C 302.575378 55.58469 306.531372 64.591873 310.038666 73.761848 C 311.040039 76.379936 312.401917 77.804504 315.388184 77.99543 C 327.666107 78.780426 339.929688 79.78775 352.201477 80.67276 C 357.8414 81.079506 363.491699 81.344475 369.130432 81.765343 C 372.818756 82.040627 375.2146 83.775612 377.417419 87.093857 C 382.999969 95.503502 384.085358 104.577881 383.384644 114.239906 C 383.132233 117.720184 383.33606 121.234268 383.348175 124.732864 C 383.374939 132.464905 383.385529 132.548157 375.440674 133.150604 C 361.015717 134.244431 346.587555 135.312744 332.14856 136.19133 C 329.034851 136.380798 327.924011 137.147766 327.019806 140.528122 C 323.917297 152.126755 318.885376 162.634613 306.394806 167.119461 C 303.106384 168.300171 299.783112 169.383667 296.494019 170.562561 C 293.460327 171.649918 290.664398 171.694443 288.176086 169.230835 C 286.971954 168.038635 285.401611 167.379807 283.736542 167.068695 C 271.256317 164.737 264.609406 156.168518 261.165649 144.917389 C 259.710785 140.16423 257.856506 139.455338 253.139984 139.855057 C 238.558075 141.090866 223.908157 141.524734 209.284531 142.267593 C 195.990311 142.942917 182.698746 143.68248 169.399445 144.236435 C 166.452225 144.359207 165.106155 145.342239 165.304474 148.381531 C 165.75589 155.2995 163.51268 161.488266 159.742126 167.587234 M 154.140198 123.321922 C 157.394974 126.249527 160.530167 129.477829 161.867645 133.61084 C 163.487793 138.61731 166.746613 138.954102 171.087448 138.606598 C 180.868378 137.823593 190.670959 137.29631 200.46965 136.753555 C 218.73999 135.741592 237.01091 134.730515 255.289032 133.878662 C 258.340118 133.736465 259.544434 132.757935 260.122345 129.647446 C 261.593353 121.730049 265.41098 114.987335 271.644897 109.724007 C 290.096313 94.145348 318.160278 102.122108 325.755859 125.110062 C 326.669861 127.876205 326.849182 131.050705 331.292389 130.681335 C 345.210297 129.524307 359.148254 128.604965 373.081696 127.640175 C 376.285034 127.418365 377.861664 126.085999 377.756439 122.62677 C 377.574097 116.6353 377.473053 110.622208 377.775818 104.64035 C 378.099335 98.247856 373.909241 93.843987 371.422455 88.685707 C 370.872253 87.544518 369.578156 87.41848 368.367157 87.344765 C 363.054169 87.021339 357.742035 86.680916 352.432373 86.307114 C 339.333466 85.384949 326.242157 84.33728 313.134613 83.564484 C 308.788208 83.308235 306.663025 81.115486 305.229004 77.27433 C 301.795074 68.076347 298.094482 58.978027 294.515167 49.834156 C 293.507874 47.260792 292.527313 45.035763 288.91394 45.439289 C 273.161621 47.198406 257.309296 46.3032 241.503586 46.940544 C 209.565506 48.228413 177.590927 48.638187 145.628281 49.247124 C 142.332581 49.309914 140.559204 50.525814 138.916092 53.228474 C 131.563263 65.322746 123.957245 77.262825 116.557747 89.329155 C 114.531616 92.633171 112.005013 94.641006 108.110588 95.648781 C 89.281532 100.521286 70.523758 105.670097 51.75518 110.774178 C 49.795097 111.307213 47.34951 111.333809 47.574585 114.617348 C 48.256813 124.569984 48.79842 134.532837 49.313148 144.495941 C 49.434975 146.854065 50.382286 147.686829 52.764416 147.469315 C 67.63385 146.111572 82.511665 144.845734 97.376251 143.550354 C 104.402954 113.077599 136.673752 107.716438 154.140198 123.321922 M 108.875389 129.385147 C 104.541275 134.712952 102.102623 140.712433 101.966316 147.671295 C 101.635605 164.554672 114.573975 178.294266 131.245071 178.624725 C 147.253525 178.942047 161.767456 164.508865 161.629028 148.40979 C 161.526566 136.491959 153.926514 125.521599 142.570679 120.899857 C 131.230179 116.284363 118.618942 119.282372 108.875389 129.385147 M 282.54837 107.922264 C 268.672913 114.527443 262.607025 125.547821 264.264557 140.500626 C 265.9375 155.591888 285.52652 171.561157 301.128937 162.772278 C 303.135468 161.641983 305.448364 161.054794 307.620911 160.220154 C 317.798645 156.31015 324.749939 144.286392 323.529114 133.543076 C 321.124542 112.382812 301.201324 101.220306 282.54837 107.922264 z" stroke-linecap="round" />
</g>
		<g transform="matrix(1 0 0 1 13.85 75.05)"  >
<path style="stroke: none; stroke-width: 1; stroke-dasharray: none; stroke-linecap: butt; stroke-dashoffset: 0; stroke-linejoin: miter; stroke-miterlimit: 4; fill: rgb(255,255,255); fill-rule: nonzero; opacity: 1;" vector-effect="non-scaling-stroke"  transform=" translate(-226.48, -246.61)" d="M 321.561707 196.417175 C 332.395416 194.210648 342.812897 192.089554 353.247528 190.056183 C 354.865204 189.740967 356.560089 189.802139 358.2211 189.734024 C 360.459869 189.642212 361.547729 190.55957 361.495544 192.987228 C 360.749115 227.707306 347.634125 255.803177 318.098602 275.460205 C 297.019073 289.48941 273.030548 294.696808 248.774414 299.277588 C 231.214386 302.593811 213.492691 304.013428 195.634979 303.309235 C 157.468369 301.804199 124.375946 289.273651 99.702782 258.720795 C 97.299782 255.745132 95.018082 252.650391 92.92495 249.450729 C 90.015335 245.002945 91.536491 241.791397 96.747971 241.808197 C 107.24205 241.842041 117.100601 239.442657 126.806366 235.582108 C 131.0504 233.893997 135.809525 233.475891 140.351837 232.566452 C 196.699493 221.28479 253.049805 210.016357 309.401398 198.754379 C 313.309937 197.973251 317.234161 197.270554 321.561707 196.417175 M 251.923004 234.988464 C 250.629562 239.597275 247.750336 242.577011 242.909546 243.122864 C 238.130127 243.661804 233.373062 244.347839 228.522522 244.390106 C 221.342926 244.452682 214.336426 246.007278 207.614563 248.451859 C 199.114059 251.543304 194.167572 249.506104 191.123032 241.207611 C 191.063919 241.046478 190.639282 241.01944 190.20137 240.865021 C 186.655563 251.474701 184.968445 262.447144 183.050034 273.370056 C 180.945175 285.354462 190.922714 297.363892 203.302216 297.711273 C 213.308334 297.991974 223.231628 297.133392 233.134903 295.760101 C 256.392426 292.535004 279.548065 288.670441 300.953918 278.496613 C 324.388519 267.358551 342.198761 250.599869 350.566864 225.270874 C 353.691193 215.814056 355.190521 206.077148 355.359253 195.884613 C 354.271667 195.953369 353.61911 195.92308 352.996155 196.044556 C 340.6091 198.459854 328.223572 200.882812 315.841644 203.324158 C 295.157684 207.402405 274.471405 211.46936 253.797791 215.59967 C 248.88092 216.581985 248.141846 217.842987 250.841919 221.822876 C 253.599045 225.88681 253.32959 229.909882 251.923004 234.988464 M 177.970581 288.02359 C 175.764969 283.066101 176.60144 277.935028 177.071228 272.814758 C 177.708801 265.865662 179.915421 259.221161 180.948151 252.321014 C 181.844559 246.331818 183.597153 240.327408 186.231247 234.749649 C 186.94545 233.23732 189.546158 232.286102 188.019501 230.202911 C 186.739227 228.455872 184.677597 229.446945 182.924271 229.793976 C 165.026459 233.336502 147.12381 236.854797 129.233307 240.433838 C 119.206688 242.439682 109.200317 244.546722 99.123558 246.620804 C 106.91433 269.67157 160.038467 299.917969 185.927429 296.086334 C 182.748978 293.9534 180.106247 291.758423 177.970581 288.02359 M 202.263062 225.995407 C 193.386963 227.411285 193.010086 228.012527 195.78006 236.400391 C 196.092438 237.346313 196.458542 238.274414 196.794296 239.212723 C 198.484909 243.937378 200.258774 244.839005 205.000687 242.974197 C 207.961639 241.809799 211.075424 241.381348 214.089996 240.544907 C 222.513687 238.207581 231.220078 238.84288 239.751663 237.720261 C 243.556244 237.21965 245.436539 235.396851 246.753036 231.803696 C 248.335449 227.484787 244.866547 225.043335 244.108139 221.673462 C 243.33493 218.237686 241.476685 218.07576 238.65097 218.653809 C 226.80159 221.07782 214.929932 223.393005 202.263062 225.995407 z" stroke-linecap="round" />
</g>
</g>
</g>
<g transform="matrix(1 0 0 1 540 706.44)" style="" id="05460175-d316-4cfb-887f-79f33d1e4f04"  >
		<text xml:space="preserve" font-family="Raleway" font-size="64" font-style="normal" font-weight="900" style="stroke: none; stroke-width: 1; stroke-dasharray: none; stroke-linecap: butt; stroke-dashoffset: 0; stroke-linejoin: miter; stroke-miterlimit: 4; fill: rgb(255,255,255); fill-rule: nonzero; opacity: 1; white-space: pre;" ><tspan x="-279.71" y="20.1" >Azoom Car Rental</tspan></text>
</g>
</svg>